<?xml version="1.0" standalone="no"?>
<!DOCTYPE svg PUBLIC "-//W3C//DTD SVG 20010904//EN"
 "http://www.w3.org/TR/2001/REC-SVG-20010904/DTD/svg10.dtd">
<svg version="1.0" xmlns="http://www.w3.org/2000/svg"
 width="651.000000pt" height="173.000000pt" viewBox="0 0 651.000000 173.000000"
 preserveAspectRatio="xMidYMid meet">

<g transform="translate(0.000000,173.000000) scale(0.100000,-0.100000)"
fill="#000000" stroke="none">
<path d="M0 865 l0 -865 3255 0 3255 0 0 865 0 865 -3255 0 -3255 0 0 -865z
m1602 466 l33 -29 3 -419 c1 -230 0 -427 -2 -439 -3 -11 -18 -33 -32 -47 l-27
-27 -486 0 c-445 0 -488 2 -507 18 -43 34 -44 43 -44 482 l0 422 34 34 34 34
481 0 481 0 32 -29z m412 -340 l30 -74 13 29 c7 16 22 50 33 77 18 45 21 47
59 47 l39 0 -40 -102 c-22 -57 -47 -122 -56 -145 -14 -38 -20 -43 -47 -43 -27
0 -33 5 -47 43 -9 23 -34 88 -56 145 l-41 103 41 -3 42 -3 30 -74z m435 -78
c17 -87 31 -161 31 -165 0 -5 -36 -8 -79 -8 l-80 0 -7 -45 c-6 -44 -7 -45 -45
-45 -22 0 -39 3 -39 7 0 4 8 43 17 85 l16 78 65 0 c61 0 64 1 59 23 -3 12 -9
40 -13 62 l-8 40 -11 -50 c-11 -48 -12 -50 -48 -53 -20 -2 -37 0 -37 5 0 4 10
56 21 116 l22 107 52 0 52 0 32 -157z m171 27 l0 -130 -40 0 -40 0 0 130 0
130 40 0 40 0 0 -130z m133 102 c24 -25 27 -35 27 -102 0 -55 -4 -78 -17 -92
-15 -17 -15 -23 2 -96 10 -42 20 -83 22 -89 4 -9 -7 -13 -35 -13 -35 0 -41 3
-46 28 -22 90 -38 132 -51 132 -10 0 -15 11 -15 34 0 30 3 35 28 38 26 3 27 5
27 58 0 53 -1 55 -27 58 -25 3 -28 8 -28 38 0 33 1 34 43 34 34 0 49 -6 70
-28z m157 -182 l0 -210 -40 0 -40 0 0 210 0 210 40 0 40 0 0 -210z m160 153
c0 -56 -3 -61 -63 -137 l-62 -79 -3 58 c-3 48 1 62 22 90 19 25 26 46 26 79
l0 46 40 0 40 0 0 -57z m120 -153 l0 -210 -35 0 -35 0 0 210 0 210 35 0 35 0
0 -210z m143 182 c27 -28 27 -29 27 -182 0 -153 0 -154 -27 -182 -21 -22 -36
-28 -70 -28 -42 0 -43 0 -43 35 0 28 4 35 19 35 49 0 51 4 51 140 0 136 -2
140 -51 140 -15 0 -19 7 -19 35 0 35 1 35 43 35 34 0 49 -6 70 -28z m187 -6
c0 -21 -6 -36 -15 -40 -12 -4 -15 -29 -15 -136 0 -107 3 -132 15 -136 9 -4 15
-19 15 -40 0 -31 -3 -34 -28 -34 -18 0 -38 10 -55 28 -27 28 -27 29 -27 182 0
153 0 154 27 182 17 18 37 28 55 28 25 0 28 -3 28 -34z m112 7 l28 -27 0 -155
c0 -154 0 -155 -27 -183 -17 -18 -37 -28 -55 -28 -25 0 -28 4 -28 33 0 21 7
36 20 45 18 11 20 23 20 132 0 109 -2 121 -20 132 -13 9 -20 24 -20 45 0 29 3
33 27 33 16 0 39 -11 55 -27z m172 -155 c15 -101 30 -195 33 -210 5 -27 4 -28
-34 -28 l-39 0 -28 183 c-15 100 -30 194 -33 210 -5 26 -4 27 34 27 l39 0 28
-182z m123 160 c-3 -13 -18 -102 -33 -198 l-28 -175 -13 65 c-16 79 -21 218
-10 283 l8 47 41 0 c37 0 40 -2 35 -22z m149 5 c-3 -10 -16 -94 -30 -188 -36
-236 -28 -215 -85 -215 -47 0 -49 1 -54 33 -7 38 23 257 35 257 4 0 8 -15 9
-32 1 -78 15 -66 28 24 20 143 17 138 63 138 33 0 38 -3 34 -17z m159 -80 c21
-54 42 -102 46 -107 5 -6 9 36 9 97 l0 107 35 0 35 0 0 -211 0 -210 -41 3 -42
3 -73 189 c-41 104 -76 198 -80 208 -4 15 1 18 34 18 l40 0 37 -97z m418 -13
l42 -105 3 108 3 107 34 0 35 0 0 -210 0 -210 -39 0 -39 0 -76 193 c-41 105
-78 200 -82 210 -6 16 -2 18 35 15 l42 -3 42 -105z m277 76 c0 -21 -6 -36 -15
-40 -12 -4 -15 -29 -15 -136 0 -107 3 -132 15 -136 9 -4 15 -19 15 -40 0 -31
-3 -34 -28 -34 -18 0 -38 10 -55 28 -27 28 -27 29 -27 182 0 153 0 154 27 182
17 18 37 28 55 28 25 0 28 -3 28 -34z m112 7 l28 -27 0 -155 c0 -154 0 -155
-27 -183 -17 -18 -37 -28 -55 -28 -25 0 -28 4 -28 33 0 21 7 36 20 45 18 11
20 23 20 132 0 109 -2 121 -20 132 -13 9 -20 24 -20 45 0 29 3 33 27 33 16 0
39 -11 55 -27z m318 -8 l0 -35 -120 0 -120 0 0 35 0 35 120 0 120 0 0 -35z
m120 -90 l0 -125 -35 0 -35 0 0 125 0 125 35 0 35 0 0 -125z m140 90 l0 -35
-55 0 -55 0 0 35 0 35 55 0 55 0 0 -35z m150 0 c0 -20 -6 -37 -16 -43 -11 -6
-14 -20 -12 -48 l3 -39 50 -3 c38 -2 57 -10 78 -29 46 -45 37 -53 -60 -53 -84
0 -88 1 -120 32 -30 29 -33 37 -33 94 0 53 4 67 26 93 18 22 35 31 55 31 26 0
29 -3 29 -35z m103 7 c19 -20 27 -39 27 -65 0 -36 -1 -37 -35 -37 -28 0 -35 4
-35 19 0 10 -7 24 -15 31 -8 7 -15 28 -15 46 0 29 4 34 23 34 13 0 35 -13 50
-28z m-3893 -319 l0 -73 -40 0 -40 0 1 173 0 172 40 -99 c33 -84 39 -111 39
-173z m210 97 l0 -170 -40 0 -40 0 0 72 c0 58 7 89 38 169 20 55 38 99 40 99
1 0 2 -76 2 -170z m2000 -91 l0 -79 -35 0 -35 0 0 168 1 167 34 -88 c29 -75
35 -102 35 -168z m410 4 l0 -83 -35 0 -35 0 0 168 1 167 34 -84 c30 -73 35
-96 35 -168z m680 77 l0 -160 -40 0 -40 0 0 160 0 160 40 0 40 0 0 -160z m300
50 c0 -39 -1 -40 -35 -40 -34 0 -35 1 -35 40 0 39 1 40 35 40 34 0 35 -1 35
-40z m-2510 -127 l0 -83 -40 0 -39 0 -3 78 c-3 64 0 81 17 103 l20 27 23 -21
c19 -18 22 -30 22 -104z m2410 -8 l0 -75 -35 0 -35 0 0 75 0 75 35 0 35 0 0
-75z m420 27 c0 -40 -5 -53 -28 -75 -25 -24 -36 -27 -94 -27 -62 0 -68 2 -92
31 -17 20 -26 43 -26 65 0 33 1 34 40 34 36 0 40 -3 40 -25 0 -18 7 -26 27
-31 35 -9 57 7 61 45 3 28 6 31 38 31 l34 0 0 -48z m-3280 -37 l0 -65 -40 0
-40 0 0 65 0 65 40 0 40 0 0 -65z m3000 -30 l0 -35 -55 0 -55 0 0 35 0 35 55
0 55 0 0 -35z m-3126 9 c13 -35 7 -44 -33 -44 -35 0 -39 3 -43 30 -4 29 -3 30
33 30 24 0 39 -5 43 -16z"/>
<path d="M1143 1163 l-33 -4 0 -74 c0 -52 -4 -74 -13 -78 -27 -10 -38 11 -44
81 l-6 72 -117 0 -117 0 -6 -137 c-10 -203 -8 -412 3 -434 8 -14 21 -19 54
-19 43 0 45 1 70 52 21 43 26 66 26 131 0 75 1 78 22 75 43 -6 48 -125 8 -216
-11 -24 -20 -46 -20 -48 0 -6 130 -4 186 2 l52 7 -20 43 c-39 90 -34 206 10
212 24 4 24 4 22 -86 -1 -48 5 -75 24 -118 l25 -55 43 3 c43 3 43 3 50 48 8
57 8 475 -1 515 l-6 30 -90 1 c-50 1 -105 -1 -122 -3z"/>
</g>
</svg>
