<svg width="100%" height="100%" id="svg" viewBox="0 0 1440 490" xmlns="http://www.w3.org/2000/svg" class="transition duration-300 ease-in-out delay-150"><path d="M 0,500 L 0,125 C 95.05263157894737,149.76555023923447 190.10526315789474,174.53110047846891 270,177 C 349.89473684210526,179.46889952153109 414.63157894736844,159.64114832535884 526,159 C 637.3684210526316,158.35885167464116 795.3684210526317,176.90430622009572 911,215 C 1026.6315789473683,253.09569377990428 1099.8947368421052,310.74162679425837 1181,349 C 1262.1052631578948,387.25837320574163 1351.0526315789475,406.12918660287085 1440,425 L 1440,500 L 0,500 Z" stroke="none" stroke-width="0" fill="#ffba60" fill-opacity="0.53" class="transition-all duration-300 ease-in-out delay-150 path-0" transform="rotate(-180 720 250)"></path><path d="M 0,500 L 0,291 C 119.05263157894737,310.70334928229664 238.10526315789474,330.4066985645933 330,343 C 421.89473684210526,355.5933014354067 486.63157894736844,361.07655502392333 558,388 C 629.3684210526316,414.92344497607667 707.3684210526316,463.2870813397129 822,498 C 936.6315789473684,532.7129186602871 1087.8947368421052,553.7751196172248 1197,567 C 1306.1052631578948,580.2248803827752 1373.0526315789475,585.6124401913876 1440,591 L 1440,500 L 0,500 Z" stroke="none" stroke-width="0" fill="#ffba60" fill-opacity="1" class="transition-all duration-300 ease-in-out delay-150 path-1" transform="rotate(-180 720 250)"></path></svg>